<svg width="25" height="25" viewBox="0 0 25 25" fill="none" xmlns="http://www.w3.org/2000/svg">
<path d="M17.8966 24.9961C17.262 24.9961 16.4971 24.7683 15.6021 24.3126C14.7233 23.8407 13.7713 23.2304 12.7461 22.4818C11.7208 21.717 10.663 20.8545 9.57272 19.8944C8.49867 18.9342 7.44089 17.9578 6.39939 16.9651C5.37416 15.9887 4.47098 14.9391 3.68985 13.8162C2.90873 12.7096 2.24965 11.6193 1.71262 10.5452C1.19187 9.47118 0.785034 8.45408 0.492111 7.49395C0.215461 6.55008 0.0527261 5.75268 0.00390564 5.10174C-0.0286414 4.5159 0.14223 3.93819 0.516521 3.36861C0.874538 2.78277 1.33833 2.26202 1.9079 1.80636C2.49375 1.33443 3.12842 0.935726 3.8119 0.610256C4.49539 0.284786 5.14633 0.0813675 5.76472 0L9.20657 6.98133L7.47344 8.98297C7.65245 9.27589 8.14065 9.91056 8.93806 10.887C9.73546 11.8634 10.5329 12.7584 11.3303 13.5721C12.1277 14.3695 12.9576 15.1344 13.8201 15.8667C14.6989 16.5827 15.2847 17.0221 15.5776 17.1848L18.0431 15.354C18.0431 15.354 18.3035 15.468 18.8242 15.6958C19.345 15.9236 19.9552 16.1921 20.655 16.5013C21.3547 16.7943 22.0545 17.1034 22.7543 17.4289C23.454 17.7544 23.9829 18.0066 24.3409 18.1856C24.3409 18.1856 24.406 18.2426 24.5362 18.3565C24.6664 18.4704 24.7803 18.6738 24.8779 18.9668C24.9593 19.2597 25 19.4712 25 19.6014C25 19.7153 25 19.7723 25 19.7723C24.7071 21.0254 24.0968 22.0018 23.1692 22.7015C22.2579 23.4013 21.2571 23.9953 20.1668 24.4835C20.1668 24.4835 20.061 24.5242 19.8494 24.6055C19.6379 24.6869 19.3612 24.7683 19.0195 24.8496C18.6615 24.9473 18.3848 24.9961 18.1895 24.9961C17.9943 24.9961 17.8966 24.9961 17.8966 24.9961Z" fill="#4C505B"/>
</svg>
