<svg width="395" height="130" viewBox="0 0 395 130" fill="none" xmlns="http://www.w3.org/2000/svg">
<rect width="394.588" height="78" fill="#FFFF00"/>
<rect x="198.059" y="78" width="196.529" height="52" fill="#0071C4"/>
<path d="M23.3452 50.4706V28.2246H32.2523C33.8889 28.2246 35.2539 28.4672 36.3474 28.9524C37.4409 29.4376 38.2628 30.111 38.8131 30.9728C39.3635 31.8273 39.6387 32.8121 39.6387 33.9273C39.6387 34.7963 39.4649 35.5603 39.1173 36.2193C38.7697 36.871 38.2917 37.4069 37.6835 37.8269C37.0824 38.2397 36.3945 38.5329 35.6196 38.7067V38.924C36.4669 38.9602 37.2598 39.1992 37.9985 39.6409C38.7443 40.0826 39.349 40.7018 39.8125 41.4984C40.2759 42.2877 40.5077 43.2291 40.5077 44.3226C40.5077 45.5029 40.2144 46.5566 39.6278 47.4835C39.0485 48.4032 38.1904 49.1309 37.0534 49.6668C35.9165 50.2027 34.5153 50.4706 32.8497 50.4706H23.3452ZM28.0486 46.6254H31.883C33.1937 46.6254 34.1496 46.3755 34.7506 45.8759C35.3517 45.369 35.6522 44.6955 35.6522 43.8555C35.6522 43.2399 35.5037 42.6968 35.2068 42.2261C34.9099 41.7554 34.4863 41.3861 33.936 41.1182C33.3928 40.8502 32.7447 40.7163 31.9916 40.7163H28.0486V46.6254ZM28.0486 37.5336H31.5354C32.1799 37.5336 32.752 37.4214 33.2516 37.1969C33.7585 36.9652 34.1568 36.6393 34.4465 36.2193C34.7434 35.7993 34.8918 35.296 34.8918 34.7094C34.8918 33.9056 34.6058 33.2575 34.0337 32.7651C33.4689 32.2726 32.6651 32.0264 31.6223 32.0264H28.0486V37.5336Z" fill="black"/>
<path d="M54.1806 43.3667V33.7861H58.8079V50.4706H54.3652V47.44H54.1914C53.8149 48.4176 53.1885 49.2033 52.3123 49.7972C51.4433 50.391 50.3824 50.6879 49.1296 50.6879C48.0144 50.6879 47.0332 50.4344 46.1859 49.9275C45.3387 49.4206 44.6761 48.7001 44.1981 47.7659C43.7274 46.8317 43.4884 45.7129 43.4812 44.4095V33.7861H48.1085V43.5839C48.1158 44.5688 48.3801 45.3472 48.9015 45.9193C49.4229 46.4914 50.1217 46.7774 50.9979 46.7774C51.5555 46.7774 52.0769 46.6507 52.5621 46.3973C53.0473 46.1366 53.4383 45.7528 53.7352 45.2458C54.0394 44.7389 54.1878 44.1125 54.1806 43.3667Z" fill="black"/>
<path d="M76.3913 38.5438L72.155 38.8045C72.0825 38.4424 71.9268 38.1166 71.6879 37.8269C71.4489 37.53 71.1339 37.2946 70.7429 37.1208C70.3591 36.9398 69.8992 36.8493 69.3633 36.8493C68.6464 36.8493 68.0418 37.0014 67.5493 37.3055C67.0569 37.6024 66.8107 38.0007 66.8107 38.5004C66.8107 38.8986 66.97 39.2354 67.2886 39.5106C67.6073 39.7857 68.154 40.0066 68.9289 40.1732L71.9486 40.7814C73.5707 41.1146 74.78 41.6504 75.5766 42.3891C76.3732 43.1277 76.7714 44.0981 76.7714 45.3002C76.7714 46.3936 76.4492 47.3531 75.8047 48.1787C75.1674 49.0042 74.2912 49.6487 73.176 50.1122C72.0681 50.5684 70.7899 50.7965 69.3416 50.7965C67.133 50.7965 65.3733 50.3366 64.0625 49.417C62.7591 48.4901 61.9951 47.23 61.7706 45.6369L66.3219 45.3979C66.4595 46.0714 66.7926 46.5855 67.3212 46.9404C67.8499 47.288 68.527 47.4618 69.3525 47.4618C70.1635 47.4618 70.8153 47.3061 71.3077 46.9947C71.8074 46.6761 72.0608 46.2669 72.0681 45.7672C72.0608 45.3472 71.8834 45.0033 71.5358 44.7353C71.1882 44.4601 70.6523 44.2501 69.9282 44.1053L67.0388 43.5296C65.4095 43.2037 64.1965 42.6389 63.3999 41.8351C62.6106 41.0313 62.216 40.0066 62.216 38.7611C62.216 37.6893 62.5056 36.766 63.0849 35.9912C63.6715 35.2163 64.4934 34.6189 65.5507 34.1989C66.6152 33.7789 67.8607 33.5689 69.2873 33.5689C71.3946 33.5689 73.0529 34.0142 74.2622 34.9049C75.4788 35.7956 76.1885 37.0086 76.3913 38.5438Z" fill="black"/>
<path d="M79.6852 50.4706V33.7861H84.3126V50.4706H79.6852ZM82.0098 31.6354C81.3218 31.6354 80.7316 31.4073 80.2392 30.9511C79.754 30.4876 79.5114 29.9336 79.5114 29.2891C79.5114 28.6519 79.754 28.1051 80.2392 27.6489C80.7316 27.1855 81.3218 26.9537 82.0098 26.9537C82.6977 26.9537 83.2843 27.1855 83.7695 27.6489C84.2619 28.1051 84.5081 28.6519 84.5081 29.2891C84.5081 29.9336 84.2619 30.4876 83.7695 30.9511C83.2843 31.4073 82.6977 31.6354 82.0098 31.6354Z" fill="black"/>
<path d="M92.6467 40.8249V50.4706H88.0193V33.7861H92.4294V36.7298H92.625C92.9943 35.7594 93.6134 34.9918 94.4824 34.427C95.3514 33.8549 96.405 33.5689 97.6433 33.5689C98.802 33.5689 99.8122 33.8223 100.674 34.3292C101.536 34.8361 102.206 35.5603 102.683 36.5017C103.161 37.4359 103.4 38.5511 103.4 39.8473V50.4706H98.773V40.6728C98.7803 39.6518 98.5196 38.8552 97.9909 38.2831C97.4623 37.7038 96.7345 37.4141 95.8076 37.4141C95.1848 37.4141 94.6345 37.5481 94.1565 37.816C93.6858 38.084 93.3165 38.475 93.0486 38.9892C92.7879 39.4961 92.6539 40.108 92.6467 40.8249Z" fill="black"/>
<path d="M114.651 50.7965C112.935 50.7965 111.457 50.4489 110.219 49.7537C108.988 49.0513 108.039 48.0592 107.373 46.7774C106.707 45.4884 106.374 43.9641 106.374 42.2044C106.374 40.4882 106.707 38.9819 107.373 37.6857C108.039 36.3895 108.977 35.3793 110.187 34.6551C111.403 33.931 112.83 33.5689 114.466 33.5689C115.567 33.5689 116.592 33.7463 117.54 34.1011C118.496 34.4487 119.329 34.9737 120.039 35.6762C120.756 36.3786 121.313 37.2621 121.711 38.3266C122.11 39.3838 122.309 40.6221 122.309 42.0415V43.3124H108.221V40.4447H117.953C117.953 39.7785 117.808 39.1883 117.519 38.6742C117.229 38.16 116.827 37.7581 116.313 37.4684C115.806 37.1715 115.216 37.0231 114.542 37.0231C113.84 37.0231 113.217 37.186 112.674 37.5119C112.138 37.8305 111.718 38.2614 111.414 38.8045C111.11 39.3404 110.954 39.9378 110.947 40.5968V43.3232C110.947 44.1488 111.099 44.862 111.403 45.4631C111.715 46.0641 112.153 46.5276 112.718 46.8535C113.282 47.1793 113.952 47.3423 114.727 47.3423C115.241 47.3423 115.712 47.2699 116.139 47.125C116.566 46.9802 116.932 46.763 117.236 46.4733C117.54 46.1836 117.772 45.8288 117.931 45.4088L122.211 45.6912C121.994 46.7195 121.549 47.6175 120.875 48.3851C120.209 49.1454 119.347 49.7392 118.29 50.1665C117.24 50.5865 116.027 50.7965 114.651 50.7965Z" fill="black"/>
<path d="M139.211 38.5438L134.974 38.8045C134.902 38.4424 134.746 38.1166 134.507 37.8269C134.268 37.53 133.953 37.2946 133.562 37.1208C133.178 36.9398 132.719 36.8493 132.183 36.8493C131.466 36.8493 130.861 37.0014 130.369 37.3055C129.876 37.6024 129.63 38.0007 129.63 38.5004C129.63 38.8986 129.789 39.2354 130.108 39.5106C130.427 39.7857 130.973 40.0066 131.748 40.1732L134.768 40.7814C136.39 41.1146 137.599 41.6504 138.396 42.3891C139.193 43.1277 139.591 44.0981 139.591 45.3002C139.591 46.3936 139.269 47.3531 138.624 48.1787C137.987 49.0042 137.111 49.6487 135.995 50.1122C134.887 50.5684 133.609 50.7965 132.161 50.7965C129.952 50.7965 128.193 50.3366 126.882 49.417C125.578 48.4901 124.814 47.23 124.59 45.6369L129.141 45.3979C129.279 46.0714 129.612 46.5855 130.141 46.9404C130.669 47.288 131.346 47.4618 132.172 47.4618C132.983 47.4618 133.635 47.3061 134.127 46.9947C134.627 46.6761 134.88 46.2669 134.887 45.7672C134.88 45.3472 134.703 45.0033 134.355 44.7353C134.008 44.4601 133.472 44.2501 132.748 44.1053L129.858 43.5296C128.229 43.2037 127.016 42.6389 126.219 41.8351C125.43 41.0313 125.035 40.0066 125.035 38.7611C125.035 37.6893 125.325 36.766 125.904 35.9912C126.491 35.2163 127.313 34.6189 128.37 34.1989C129.435 33.7789 130.68 33.5689 132.107 33.5689C134.214 33.5689 135.872 34.0142 137.082 34.9049C138.298 35.7956 139.008 37.0086 139.211 38.5438Z" fill="black"/>
<path d="M156.387 38.5438L152.15 38.8045C152.078 38.4424 151.922 38.1166 151.683 37.8269C151.444 37.53 151.129 37.2946 150.738 37.1208C150.354 36.9398 149.895 36.8493 149.359 36.8493C148.642 36.8493 148.037 37.0014 147.545 37.3055C147.052 37.6024 146.806 38.0007 146.806 38.5004C146.806 38.8986 146.965 39.2354 147.284 39.5106C147.603 39.7857 148.149 40.0066 148.924 40.1732L151.944 40.7814C153.566 41.1146 154.775 41.6504 155.572 42.3891C156.369 43.1277 156.767 44.0981 156.767 45.3002C156.767 46.3936 156.445 47.3531 155.8 48.1787C155.163 49.0042 154.287 49.6487 153.171 50.1122C152.063 50.5684 150.785 50.7965 149.337 50.7965C147.128 50.7965 145.369 50.3366 144.058 49.417C142.754 48.4901 141.99 47.23 141.766 45.6369L146.317 45.3979C146.455 46.0714 146.788 46.5855 147.317 46.9404C147.845 47.288 148.522 47.4618 149.348 47.4618C150.159 47.4618 150.811 47.3061 151.303 46.9947C151.803 46.6761 152.056 46.2669 152.063 45.7672C152.056 45.3472 151.879 45.0033 151.531 44.7353C151.184 44.4601 150.648 44.2501 149.924 44.1053L147.034 43.5296C145.405 43.2037 144.192 42.6389 143.395 41.8351C142.606 41.0313 142.211 40.0066 142.211 38.7611C142.211 37.6893 142.501 36.766 143.08 35.9912C143.667 35.2163 144.489 34.6189 145.546 34.1989C146.611 33.7789 147.856 33.5689 149.283 33.5689C151.39 33.5689 153.048 34.0142 154.258 34.9049C155.474 35.7956 156.184 37.0086 156.387 38.5438Z" fill="black"/>
<path d="M170.681 50.4706H165.641L173.321 28.2246H179.382L187.051 50.4706H182.011L176.438 33.3082H176.265L170.681 50.4706ZM170.366 41.7265H182.272V45.3979H170.366V41.7265Z" fill="black"/>
<path d="M189.642 50.4706V33.7861H194.052V36.7298H194.247C194.595 35.7522 195.174 34.981 195.985 34.4161C196.796 33.8513 197.767 33.5689 198.896 33.5689C200.04 33.5689 201.014 33.8549 201.818 34.427C202.622 34.9918 203.158 35.7594 203.426 36.7298H203.6C203.94 35.7739 204.556 35.0099 205.446 34.4379C206.344 33.8585 207.405 33.5689 208.629 33.5689C210.186 33.5689 211.449 34.0649 212.42 35.057C213.397 36.0419 213.886 37.4395 213.886 39.2499V50.4706H209.27V40.1623C209.27 39.2354 209.024 38.5402 208.531 38.0767C208.039 37.6133 207.423 37.3815 206.685 37.3815C205.845 37.3815 205.189 37.6495 204.718 38.1854C204.248 38.714 204.012 39.4128 204.012 40.2818V50.4706H199.526V40.0645C199.526 39.2462 199.291 38.5945 198.82 38.1093C198.357 37.6241 197.745 37.3815 196.984 37.3815C196.47 37.3815 196.007 37.5119 195.594 37.7726C195.189 38.026 194.866 38.3845 194.627 38.848C194.388 39.3042 194.269 39.84 194.269 40.4556V50.4706H189.642Z" fill="black"/>
<path d="M217.628 50.4706V28.2246H222.256V36.5886H222.397C222.6 36.1396 222.893 35.6834 223.277 35.2199C223.668 34.7492 224.175 34.3582 224.797 34.0468C225.427 33.7282 226.21 33.5689 227.144 33.5689C228.36 33.5689 229.483 33.8875 230.511 34.5248C231.539 35.1548 232.361 36.107 232.977 37.3815C233.592 38.6488 233.9 40.2383 233.9 42.1501C233.9 44.0112 233.6 45.5826 232.998 46.8643C232.405 48.1388 231.594 49.1056 230.565 49.7646C229.544 50.4163 228.4 50.7422 227.133 50.7422C226.235 50.7422 225.471 50.5937 224.841 50.2968C224.218 49.9999 223.708 49.627 223.309 49.178C222.911 48.7218 222.607 48.2619 222.397 47.7985H222.19V50.4706H217.628ZM222.158 42.1284C222.158 43.1205 222.295 43.9858 222.571 44.7245C222.846 45.4631 223.244 46.0388 223.766 46.4516C224.287 46.8571 224.921 47.0599 225.666 47.0599C226.42 47.0599 227.057 46.8535 227.578 46.4407C228.1 46.0207 228.494 45.4414 228.762 44.7027C229.037 43.9569 229.175 43.0987 229.175 42.1284C229.175 41.1652 229.041 40.318 228.773 39.5866C228.505 38.8552 228.11 38.2831 227.589 37.8703C227.068 37.4576 226.427 37.2512 225.666 37.2512C224.913 37.2512 224.276 37.4503 223.755 37.8486C223.24 38.2469 222.846 38.8117 222.571 39.5431C222.295 40.2745 222.158 41.1363 222.158 42.1284Z" fill="black"/>
<path d="M241.745 50.7856C240.681 50.7856 239.732 50.601 238.899 50.2316C238.067 49.8551 237.408 49.3011 236.922 48.5697C236.445 47.8311 236.206 46.9114 236.206 45.8107C236.206 44.8838 236.376 44.1053 236.716 43.4753C237.056 42.8453 237.52 42.3384 238.106 41.9546C238.693 41.5708 239.359 41.2811 240.105 41.0856C240.858 40.8901 241.648 40.7525 242.473 40.6728C243.443 40.5714 244.226 40.4773 244.819 40.3904C245.413 40.2963 245.844 40.1587 246.112 39.9776C246.38 39.7966 246.514 39.5287 246.514 39.1738V39.1087C246.514 38.4207 246.297 37.8885 245.862 37.5119C245.435 37.1353 244.827 36.9471 244.037 36.9471C243.204 36.9471 242.542 37.1317 242.049 37.501C241.557 37.8631 241.231 38.3193 241.072 38.8697L236.792 38.5221C237.009 37.5083 237.437 36.632 238.074 35.8934C238.711 35.1475 239.533 34.5754 240.54 34.1772C241.553 33.7716 242.727 33.5689 244.059 33.5689C244.986 33.5689 245.873 33.6775 246.72 33.8947C247.575 34.112 248.332 34.4487 248.99 34.9049C249.657 35.3612 250.182 35.9477 250.566 36.6646C250.949 37.3743 251.141 38.2252 251.141 39.2173V50.4706H246.753V48.1569H246.623C246.355 48.6783 245.996 49.1382 245.547 49.5365C245.098 49.9275 244.559 50.2353 243.929 50.4598C243.299 50.677 242.571 50.7856 241.745 50.7856ZM243.071 47.5921C243.751 47.5921 244.352 47.4581 244.874 47.1902C245.395 46.915 245.804 46.5457 246.101 46.0822C246.398 45.6188 246.546 45.0938 246.546 44.5072V42.7367C246.402 42.8308 246.202 42.9177 245.949 42.9974C245.703 43.0698 245.424 43.1386 245.113 43.2037C244.801 43.2617 244.49 43.316 244.178 43.3667C243.867 43.4101 243.585 43.4499 243.331 43.4862C242.788 43.5658 242.314 43.6925 241.908 43.8663C241.503 44.0401 241.188 44.2755 240.963 44.5724C240.739 44.862 240.627 45.2241 240.627 45.6586C240.627 46.2886 240.855 46.7702 241.311 47.1033C241.774 47.4292 242.361 47.5921 243.071 47.5921Z" fill="black"/>
<path d="M268.613 38.5438L264.377 38.8045C264.305 38.4424 264.149 38.1166 263.91 37.8269C263.671 37.53 263.356 37.2946 262.965 37.1208C262.581 36.9398 262.121 36.8493 261.585 36.8493C260.868 36.8493 260.264 37.0014 259.771 37.3055C259.279 37.6024 259.033 38.0007 259.033 38.5004C259.033 38.8986 259.192 39.2354 259.511 39.5106C259.829 39.7857 260.376 40.0066 261.151 40.1732L264.171 40.7814C265.793 41.1146 267.002 41.6504 267.799 42.3891C268.595 43.1277 268.993 44.0981 268.993 45.3002C268.993 46.3936 268.671 47.3531 268.027 48.1787C267.389 49.0042 266.513 49.6487 265.398 50.1122C264.29 50.5684 263.012 50.7965 261.564 50.7965C259.355 50.7965 257.595 50.3366 256.285 49.417C254.981 48.4901 254.217 47.23 253.993 45.6369L258.544 45.3979C258.681 46.0714 259.015 46.5855 259.543 46.9404C260.072 47.288 260.749 47.4618 261.574 47.4618C262.386 47.4618 263.037 47.3061 263.53 46.9947C264.029 46.6761 264.283 46.2669 264.29 45.7672C264.283 45.3472 264.105 45.0033 263.758 44.7353C263.41 44.4601 262.874 44.2501 262.15 44.1053L259.261 43.5296C257.631 43.2037 256.418 42.6389 255.622 41.8351C254.833 41.0313 254.438 40.0066 254.438 38.7611C254.438 37.6893 254.728 36.766 255.307 35.9912C255.893 35.2163 256.715 34.6189 257.773 34.1989C258.837 33.7789 260.083 33.5689 261.509 33.5689C263.617 33.5689 265.275 34.0142 266.484 34.9049C267.701 35.7956 268.41 37.0086 268.613 38.5438Z" fill="black"/>
<path d="M285.789 38.5438L281.553 38.8045C281.481 38.4424 281.325 38.1166 281.086 37.8269C280.847 37.53 280.532 37.2946 280.141 37.1208C279.757 36.9398 279.297 36.8493 278.761 36.8493C278.044 36.8493 277.44 37.0014 276.947 37.3055C276.455 37.6024 276.209 38.0007 276.209 38.5004C276.209 38.8986 276.368 39.2354 276.687 39.5106C277.005 39.7857 277.552 40.0066 278.327 40.1732L281.347 40.7814C282.969 41.1146 284.178 41.6504 284.975 42.3891C285.771 43.1277 286.169 44.0981 286.169 45.3002C286.169 46.3936 285.847 47.3531 285.203 48.1787C284.565 49.0042 283.689 49.6487 282.574 50.1122C281.466 50.5684 280.188 50.7965 278.74 50.7965C276.531 50.7965 274.771 50.3366 273.461 49.417C272.157 48.4901 271.393 47.23 271.169 45.6369L275.72 45.3979C275.857 46.0714 276.191 46.5855 276.719 46.9404C277.248 47.288 277.925 47.4618 278.75 47.4618C279.562 47.4618 280.213 47.3061 280.706 46.9947C281.205 46.6761 281.459 46.2669 281.466 45.7672C281.459 45.3472 281.281 45.0033 280.934 44.7353C280.586 44.4601 280.05 44.2501 279.326 44.1053L276.437 43.5296C274.807 43.2037 273.594 42.6389 272.798 41.8351C272.009 41.0313 271.614 40.0066 271.614 38.7611C271.614 37.6893 271.904 36.766 272.483 35.9912C273.069 35.2163 273.891 34.6189 274.949 34.1989C276.013 33.7789 277.259 33.5689 278.685 33.5689C280.793 33.5689 282.451 34.0142 283.66 34.9049C284.877 35.7956 285.586 37.0086 285.789 38.5438Z" fill="black"/>
<path d="M293.841 50.7856C292.776 50.7856 291.828 50.601 290.995 50.2316C290.162 49.8551 289.503 49.3011 289.018 48.5697C288.54 47.8311 288.301 46.9114 288.301 45.8107C288.301 44.8838 288.471 44.1053 288.812 43.4753C289.152 42.8453 289.615 42.3384 290.202 41.9546C290.789 41.5708 291.455 41.2811 292.201 41.0856C292.954 40.8901 293.743 40.7525 294.569 40.6728C295.539 40.5714 296.321 40.4773 296.915 40.3904C297.509 40.2963 297.94 40.1587 298.208 39.9776C298.475 39.7966 298.609 39.5287 298.609 39.1738V39.1087C298.609 38.4207 298.392 37.8885 297.958 37.5119C297.53 37.1353 296.922 36.9471 296.133 36.9471C295.3 36.9471 294.637 37.1317 294.145 37.501C293.653 37.8631 293.327 38.3193 293.167 38.8697L288.888 38.5221C289.105 37.5083 289.532 36.632 290.169 35.8934C290.807 35.1475 291.629 34.5754 292.635 34.1772C293.649 33.7716 294.822 33.5689 296.155 33.5689C297.081 33.5689 297.969 33.6775 298.816 33.8947C299.67 34.112 300.427 34.4487 301.086 34.9049C301.752 35.3612 302.277 35.9477 302.661 36.6646C303.045 37.3743 303.237 38.2252 303.237 39.2173V50.4706H298.848V48.1569H298.718C298.45 48.6783 298.092 49.1382 297.643 49.5365C297.194 49.9275 296.654 50.2353 296.024 50.4598C295.394 50.677 294.666 50.7856 293.841 50.7856ZM295.166 47.5921C295.847 47.5921 296.448 47.4581 296.969 47.1902C297.491 46.915 297.9 46.5457 298.197 46.0822C298.494 45.6188 298.642 45.0938 298.642 44.5072V42.7367C298.497 42.8308 298.298 42.9177 298.045 42.9974C297.798 43.0698 297.52 43.1386 297.208 43.2037C296.897 43.2617 296.585 43.316 296.274 43.3667C295.963 43.4101 295.68 43.4499 295.427 43.4862C294.884 43.5658 294.409 43.6925 294.004 43.8663C293.598 44.0401 293.283 44.2755 293.059 44.5724C292.834 44.862 292.722 45.2241 292.722 45.6586C292.722 46.2886 292.95 46.7702 293.406 47.1033C293.87 47.4292 294.456 47.5921 295.166 47.5921Z" fill="black"/>
<path d="M312.975 50.7422C311.708 50.7422 310.56 50.4163 309.532 49.7646C308.51 49.1056 307.699 48.1388 307.098 46.8643C306.505 45.5826 306.208 44.0112 306.208 42.1501C306.208 40.2383 306.515 38.6488 307.131 37.3815C307.746 36.107 308.565 35.1548 309.586 34.5248C310.614 33.8875 311.74 33.5689 312.964 33.5689C313.898 33.5689 314.677 33.7282 315.299 34.0468C315.929 34.3582 316.436 34.7492 316.82 35.2199C317.211 35.6834 317.508 36.1396 317.711 36.5886H317.852V28.2246H322.469V50.4706H317.906V47.7985H317.711C317.494 48.2619 317.186 48.7218 316.788 49.178C316.396 49.627 315.886 49.9999 315.256 50.2968C314.633 50.5937 313.873 50.7422 312.975 50.7422ZM314.441 47.0599C315.187 47.0599 315.817 46.8571 316.331 46.4516C316.853 46.0388 317.251 45.4631 317.526 44.7245C317.809 43.9858 317.95 43.1205 317.95 42.1284C317.95 41.1363 317.812 40.2745 317.537 39.5431C317.262 38.8117 316.864 38.2469 316.342 37.8486C315.821 37.4503 315.187 37.2512 314.441 37.2512C313.681 37.2512 313.04 37.4576 312.519 37.8703C311.997 38.2831 311.603 38.8552 311.335 39.5866C311.067 40.318 310.933 41.1652 310.933 42.1284C310.933 43.0987 311.067 43.9569 311.335 44.7027C311.61 45.4414 312.005 46.0207 312.519 46.4407C313.04 46.8535 313.681 47.0599 314.441 47.0599Z" fill="black"/>
<path d="M333.811 50.7965C332.124 50.7965 330.665 50.438 329.434 49.7211C328.21 48.997 327.265 47.9904 326.599 46.7014C325.933 45.4052 325.6 43.9025 325.6 42.1935C325.6 40.4701 325.933 38.9638 326.599 37.6748C327.265 36.3786 328.21 35.372 329.434 34.6551C330.665 33.931 332.124 33.5689 333.811 33.5689C335.499 33.5689 336.954 33.931 338.178 34.6551C339.409 35.372 340.358 36.3786 341.024 37.6748C341.69 38.9638 342.023 40.4701 342.023 42.1935C342.023 43.9025 341.69 45.4052 341.024 46.7014C340.358 47.9904 339.409 48.997 338.178 49.7211C336.954 50.438 335.499 50.7965 333.811 50.7965ZM333.833 47.2119C334.601 47.2119 335.242 46.9947 335.756 46.5602C336.27 46.1185 336.657 45.5174 336.918 44.757C337.186 43.9967 337.32 43.1313 337.32 42.161C337.32 41.1906 337.186 40.3252 336.918 39.5649C336.657 38.8045 336.27 38.2035 335.756 37.7617C335.242 37.32 334.601 37.0991 333.833 37.0991C333.058 37.0991 332.407 37.32 331.878 37.7617C331.357 38.2035 330.962 38.8045 330.694 39.5649C330.433 40.3252 330.303 41.1906 330.303 42.161C330.303 43.1313 330.433 43.9967 330.694 44.757C330.962 45.5174 331.357 46.1185 331.878 46.5602C332.407 46.9947 333.058 47.2119 333.833 47.2119Z" fill="black"/>
<path d="M345.032 50.4706V33.7861H349.518V36.6972H349.692C349.996 35.6617 350.507 34.8796 351.224 34.351C351.941 33.8151 352.766 33.5472 353.7 33.5472C353.932 33.5472 354.182 33.5616 354.45 33.5906C354.718 33.6196 354.953 33.6594 355.156 33.7101V37.816C354.939 37.7509 354.638 37.6929 354.254 37.6422C353.871 37.5915 353.519 37.5662 353.201 37.5662C352.52 37.5662 351.912 37.7147 351.376 38.0116C350.847 38.3012 350.427 38.7067 350.116 39.2281C349.812 39.7495 349.66 40.3506 349.66 41.0313V50.4706H345.032Z" fill="black"/>
<path d="M371.43 38.5438L367.194 38.8045C367.122 38.4424 366.966 38.1166 366.727 37.8269C366.488 37.53 366.173 37.2946 365.782 37.1208C365.398 36.9398 364.938 36.8493 364.402 36.8493C363.685 36.8493 363.081 37.0014 362.588 37.3055C362.096 37.6024 361.85 38.0007 361.85 38.5004C361.85 38.8986 362.009 39.2354 362.328 39.5106C362.646 39.7857 363.193 40.0066 363.968 40.1732L366.988 40.7814C368.61 41.1146 369.819 41.6504 370.616 42.3891C371.412 43.1277 371.81 44.0981 371.81 45.3002C371.81 46.3936 371.488 47.3531 370.844 48.1787C370.207 49.0042 369.33 49.6487 368.215 50.1122C367.107 50.5684 365.829 50.7965 364.381 50.7965C362.172 50.7965 360.412 50.3366 359.102 49.417C357.798 48.4901 357.034 47.23 356.81 45.6369L361.361 45.3979C361.499 46.0714 361.832 46.5855 362.36 46.9404C362.889 47.288 363.566 47.4618 364.392 47.4618C365.203 47.4618 365.854 47.3061 366.347 46.9947C366.846 46.6761 367.1 46.2669 367.107 45.7672C367.1 45.3472 366.922 45.0033 366.575 44.7353C366.227 44.4601 365.691 44.2501 364.967 44.1053L362.078 43.5296C360.449 43.2037 359.236 42.6389 358.439 41.8351C357.65 41.0313 357.255 40.0066 357.255 38.7611C357.255 37.6893 357.545 36.766 358.124 35.9912C358.711 35.2163 359.533 34.6189 360.59 34.1989C361.654 33.7789 362.9 33.5689 364.326 33.5689C366.434 33.5689 368.092 34.0142 369.301 34.9049C370.518 35.7956 371.228 37.0086 371.43 38.5438Z" fill="black"/>
<path d="M229.381 115.796C227.694 115.796 226.235 115.438 225.004 114.721C223.78 113.997 222.835 112.99 222.169 111.701C221.503 110.405 221.169 108.903 221.169 107.194C221.169 105.47 221.503 103.964 222.169 102.675C222.835 101.379 223.78 100.372 225.004 99.6551C226.235 98.931 227.694 98.5689 229.381 98.5689C231.069 98.5689 232.524 98.931 233.748 99.6551C234.979 100.372 235.928 101.379 236.594 102.675C237.26 103.964 237.593 105.47 237.593 107.194C237.593 108.903 237.26 110.405 236.594 111.701C235.928 112.99 234.979 113.997 233.748 114.721C232.524 115.438 231.069 115.796 229.381 115.796ZM229.403 112.212C230.171 112.212 230.812 111.995 231.326 111.56C231.84 111.118 232.227 110.517 232.488 109.757C232.756 108.997 232.89 108.131 232.89 107.161C232.89 106.191 232.756 105.325 232.488 104.565C232.227 103.805 231.84 103.203 231.326 102.762C230.812 102.32 230.171 102.099 229.403 102.099C228.628 102.099 227.976 102.32 227.448 102.762C226.926 103.203 226.532 103.805 226.264 104.565C226.003 105.325 225.873 106.191 225.873 107.161C225.873 108.131 226.003 108.997 226.264 109.757C226.532 110.517 226.926 111.118 227.448 111.56C227.976 111.995 228.628 112.212 229.403 112.212Z" fill="#FFFF00"/>
<path d="M249.574 98.7861V102.262H239.277V98.7861H249.574ZM241.634 115.471V97.5804C241.634 96.3711 241.869 95.3681 242.34 94.5715C242.818 93.775 243.47 93.1776 244.295 92.7793C245.121 92.381 246.059 92.1818 247.109 92.1818C247.818 92.1818 248.466 92.2362 249.053 92.3448C249.647 92.4534 250.088 92.5512 250.378 92.6381L249.553 96.114C249.372 96.0561 249.147 96.0018 248.879 95.9511C248.618 95.9004 248.351 95.875 248.075 95.875C247.395 95.875 246.92 96.0343 246.652 96.353C246.384 96.6644 246.25 97.1025 246.25 97.6673V115.471H241.634Z" fill="#FFFF00"/>
<path d="M273.308 93.2246H278.012V107.671C278.012 109.294 277.624 110.713 276.85 111.93C276.082 113.146 275.007 114.095 273.623 114.775C272.24 115.449 270.629 115.786 268.79 115.786C266.943 115.786 265.328 115.449 263.945 114.775C262.562 114.095 261.487 113.146 260.719 111.93C259.951 110.713 259.568 109.294 259.568 107.671V93.2246H264.271V107.27C264.271 108.117 264.456 108.87 264.825 109.529C265.202 110.188 265.73 110.706 266.411 111.082C267.092 111.459 267.885 111.647 268.79 111.647C269.702 111.647 270.495 111.459 271.169 111.082C271.849 110.706 272.374 110.188 272.744 109.529C273.12 108.87 273.308 108.117 273.308 107.27V93.2246Z" fill="#FFFF00"/>
<path d="M285.987 110.669L285.998 105.119H286.672L292.016 98.7861H297.328L290.148 107.172H289.051L285.987 110.669ZM281.795 115.471V93.2246H286.422V115.471H281.795ZM292.222 115.471L287.313 108.204L290.398 104.934L297.643 115.471H292.222Z" fill="#FFFF00"/>
<path d="M299.598 115.471V98.7861H304.084V101.697H304.258C304.562 100.662 305.073 99.8796 305.789 99.351C306.506 98.8151 307.332 98.5472 308.266 98.5472C308.498 98.5472 308.748 98.5616 309.016 98.5906C309.284 98.6196 309.519 98.6594 309.722 98.7101V102.816C309.504 102.751 309.204 102.693 308.82 102.642C308.436 102.592 308.085 102.566 307.766 102.566C307.086 102.566 306.477 102.715 305.942 103.012C305.413 103.301 304.993 103.707 304.682 104.228C304.377 104.75 304.225 105.351 304.225 106.031V115.471H299.598Z" fill="#FFFF00"/>
<path d="M316.394 115.786C315.329 115.786 314.381 115.601 313.548 115.232C312.715 114.855 312.056 114.301 311.571 113.57C311.093 112.831 310.854 111.911 310.854 110.811C310.854 109.884 311.024 109.105 311.365 108.475C311.705 107.845 312.168 107.338 312.755 106.955C313.341 106.571 314.008 106.281 314.754 106.086C315.507 105.89 316.296 105.752 317.122 105.673C318.092 105.571 318.874 105.477 319.468 105.39C320.062 105.296 320.492 105.159 320.76 104.978C321.028 104.797 321.162 104.529 321.162 104.174V104.109C321.162 103.421 320.945 102.888 320.511 102.512C320.083 102.135 319.475 101.947 318.686 101.947C317.853 101.947 317.19 102.132 316.698 102.501C316.206 102.863 315.88 103.319 315.72 103.87L311.441 103.522C311.658 102.508 312.085 101.632 312.722 100.893C313.36 100.148 314.181 99.5754 315.188 99.1772C316.202 98.7716 317.375 98.5689 318.707 98.5689C319.634 98.5689 320.521 98.6775 321.369 98.8947C322.223 99.112 322.98 99.4487 323.639 99.9049C324.305 100.361 324.83 100.948 325.214 101.665C325.598 102.374 325.79 103.225 325.79 104.217V115.471H321.401V113.157H321.271C321.003 113.678 320.645 114.138 320.196 114.536C319.747 114.927 319.207 115.235 318.577 115.46C317.947 115.677 317.219 115.786 316.394 115.786ZM317.719 112.592C318.4 112.592 319.001 112.458 319.522 112.19C320.044 111.915 320.453 111.546 320.75 111.082C321.046 110.619 321.195 110.094 321.195 109.507V107.737C321.05 107.831 320.851 107.918 320.597 107.997C320.351 108.07 320.072 108.139 319.761 108.204C319.45 108.262 319.138 108.316 318.827 108.367C318.516 108.41 318.233 108.45 317.98 108.486C317.437 108.566 316.962 108.693 316.557 108.866C316.151 109.04 315.836 109.275 315.612 109.572C315.387 109.862 315.275 110.224 315.275 110.659C315.275 111.289 315.503 111.77 315.959 112.103C316.423 112.429 317.009 112.592 317.719 112.592Z" fill="#FFFF00"/>
<path d="M329.38 115.471V98.7861H334.007V115.471H329.38ZM331.704 96.6354C331.016 96.6354 330.426 96.4073 329.934 95.9511C329.448 95.4876 329.206 94.9336 329.206 94.2891C329.206 93.6519 329.448 93.1051 329.934 92.6489C330.426 92.1855 331.016 91.9537 331.704 91.9537C332.392 91.9537 332.979 92.1855 333.464 92.6489C333.956 93.1051 334.203 93.6519 334.203 94.2891C334.203 94.9336 333.956 95.4876 333.464 95.9511C332.979 96.4073 332.392 96.6354 331.704 96.6354Z" fill="#FFFF00"/>
<path d="M342.341 105.825V115.471H337.714V98.7861H342.124V101.73H342.319C342.689 100.759 343.308 99.9918 344.177 99.427C345.046 98.8549 346.099 98.5689 347.338 98.5689C348.496 98.5689 349.507 98.8223 350.368 99.3292C351.23 99.8361 351.9 100.56 352.378 101.502C352.856 102.436 353.095 103.551 353.095 104.847V115.471H348.467V105.673C348.475 104.652 348.214 103.855 347.685 103.283C347.157 102.704 346.429 102.414 345.502 102.414C344.879 102.414 344.329 102.548 343.851 102.816C343.38 103.084 343.011 103.475 342.743 103.989C342.482 104.496 342.348 105.108 342.341 105.825Z" fill="#FFFF00"/>
<path d="M364.345 115.796C362.629 115.796 361.152 115.449 359.914 114.754C358.683 114.051 357.734 113.059 357.068 111.777C356.401 110.488 356.068 108.964 356.068 107.204C356.068 105.488 356.401 103.982 357.068 102.686C357.734 101.389 358.672 100.379 359.881 99.6551C361.098 98.931 362.524 98.5689 364.161 98.5689C365.261 98.5689 366.286 98.7463 367.235 99.1011C368.191 99.4487 369.023 99.9737 369.733 100.676C370.45 101.379 371.008 102.262 371.406 103.327C371.804 104.384 372.003 105.622 372.003 107.041V108.312H357.915V105.445H367.648C367.648 104.778 367.503 104.188 367.213 103.674C366.923 103.16 366.521 102.758 366.007 102.468C365.5 102.172 364.91 102.023 364.237 102.023C363.534 102.023 362.912 102.186 362.368 102.512C361.833 102.831 361.413 103.261 361.108 103.805C360.804 104.34 360.649 104.938 360.641 105.597V108.323C360.641 109.149 360.793 109.862 361.098 110.463C361.409 111.064 361.847 111.528 362.412 111.853C362.977 112.179 363.647 112.342 364.421 112.342C364.936 112.342 365.406 112.27 365.834 112.125C366.261 111.98 366.626 111.763 366.931 111.473C367.235 111.184 367.467 110.829 367.626 110.409L371.906 110.691C371.688 111.72 371.243 112.617 370.57 113.385C369.903 114.145 369.042 114.739 367.984 115.166C366.934 115.586 365.721 115.796 364.345 115.796Z" fill="#FFFF00"/>
</svg>
